# xmcd
#
# Track frame offsets: 
#        150
#        31881
#        46122
#        64825
#        90487
#        109608
#        129152
#        148379
#        163916
#        187555
#        210015
#        238691
#        270777
#        291034
#        314257
#        332331
#        348263
#
# Disc length: 4870 seconds
#
# Revision: 0
# Processed by: cddbd v1.5.2PL0 Copyright (c) Steve Scherf et al.
# Submitted via: ExactAudioCopy v0.99pb3
#
DISCID=db130411
DTITLE=Eagles - Hell freezes over
DYEAR=1900
DGENRE=
TTITLE0=Hotel California
TTITLE1=Tequila Sunrise
TTITLE2=Help Me Through The Night
TTITLE3=The Heart Of The Matter
TTITLE4=Love Will Keep Us Alive
TTITLE5=Learn To Be Still
TTITLE6=Pretty Maids All In A Row
TTITLE7=The Girl From Yesterday
TTITLE8=Wasted Time
TTITLE9=I Can't Tell You Why
TTITLE10=New York Minute
TTITLE11=The Last Resort
TTITLE12=Take It Easy
TTITLE13=Life In The Fast Lane
TTITLE14=In The City
TTITLE15=Get Over It
TTITLE16=Desperado
EXTD=
EXTT0=
EXTT1=
EXTT2=
EXTT3=
EXTT4=
EXTT5=
EXTT6=
EXTT7=
EXTT8=
EXTT9=
EXTT10=
EXTT11=
EXTT12=
EXTT13=
EXTT14=
EXTT15=
EXTT16=
PLAYORDER=
